<svg width="120" height="28" viewBox="0 0 120 28" fill="none" xmlns="http://www.w3.org/2000/svg">
<path d="M34.4224 19.9062V8.37207H38.2657V16.7103H46.5777V19.91L34.4224 19.9062Z" fill="white"/>
<path d="M61.8611 8.37207V14.8685C61.8611 16.2258 61.5932 17.3058 61.0572 18.1083C60.5213 18.9109 59.754 19.4793 58.7554 19.8136C57.7574 20.1474 56.5098 20.3143 55.0127 20.3143C53.5156 20.3143 52.268 20.1474 51.2699 19.8136C50.2719 19.4798 49.5046 18.9142 48.9681 18.1167C48.4317 17.3192 48.1635 16.2364 48.1635 14.8685V8.37207H52.0068V14.7555C52.0068 15.5843 52.2651 16.1821 52.7818 16.5487C53.2985 16.9154 54.0432 17.0987 55.0158 17.0987C55.9796 17.0987 56.7221 16.9154 57.2435 16.5487C57.7649 16.1821 58.0248 15.5843 58.0232 14.7555V8.37207H61.8611Z" fill="white"/>
<path d="M80.7948 19.9062H76.9515V12.0527H76.8618L73.8209 19.9062H70.9226L67.8387 11.9556H67.7342V19.9062H64.0999V8.37207H69.9986L72.3378 14.8518H72.4415L74.7355 8.37207H80.7987L80.7948 19.9062Z" fill="white"/>
<path d="M83.0284 19.9062V8.37207H86.8718V19.91L83.0284 19.9062Z" fill="white"/>
<path d="M102.283 9.48395C103.579 10.4954 104.227 12.0467 104.227 14.1378C104.227 16.2289 103.579 17.7802 102.283 18.7916C100.987 19.8031 99.0634 20.3088 96.5127 20.3088C93.9697 20.3088 92.0505 19.8031 90.7551 18.7916C89.4597 17.7802 88.8109 16.2289 88.8088 14.1378C88.8088 12.0482 89.4568 10.4969 90.7527 9.48395C92.0487 8.471 93.9678 7.96528 96.5103 7.9668C99.0627 7.96528 100.987 8.471 102.283 9.48395ZM99.1318 16.3923C99.7171 15.8694 100.01 15.1179 100.011 14.1378C100.011 13.1577 99.7182 12.4062 99.1318 11.8833C98.5465 11.3609 97.6726 11.0997 96.5103 11.0997C95.348 11.0997 94.4765 11.3609 93.8959 11.8833C93.3147 12.4062 93.0241 13.1577 93.0241 14.1378C93.0241 15.1179 93.3147 15.8694 93.8959 16.3923C94.477 16.9147 95.3485 17.1759 96.5103 17.1759C97.6721 17.1759 98.546 16.9147 99.1318 16.3923Z" fill="white"/>
<path d="M114.423 10.8581C114.001 10.6559 113.392 10.5547 112.598 10.5547C111.784 10.5547 111.203 10.6382 110.855 10.8051C110.507 10.9719 110.334 11.217 110.334 11.5401C110.326 11.6534 110.351 11.7664 110.406 11.8665C110.461 11.9665 110.544 12.0495 110.645 12.106C110.853 12.2243 111.211 12.3106 111.718 12.3647L116.052 12.7523C117.364 12.8706 118.35 13.21 119.01 13.7703C119.67 14.3306 120 15.1764 120 16.3077C120 17.3743 119.734 18.1984 119.203 18.7799C118.672 19.3615 117.892 19.7628 116.864 19.9838C115.835 20.2048 114.477 20.3153 112.79 20.3153C111.17 20.3153 109.859 20.1967 108.857 19.9595C107.855 19.7223 107.082 19.2968 106.54 18.6828C105.999 18.0694 105.709 17.2021 105.669 16.0809H110.143C110.252 16.6954 110.528 17.1184 110.97 17.35C111.412 17.5816 112.07 17.6974 112.944 17.6974C113.838 17.6974 114.481 17.6084 114.873 17.4304C115.266 17.2524 115.462 16.9743 115.461 16.596C115.461 16.2835 115.347 16.0559 115.119 15.9133C114.891 15.7707 114.548 15.6791 114.091 15.6387L109.92 15.2025C108.599 15.0629 107.606 14.7342 106.941 14.2163C106.276 13.6985 105.943 12.8742 105.943 11.7434C105.943 10.7825 106.209 10.0257 106.74 9.47299C107.271 8.92025 108.031 8.52959 109.019 8.301C110.007 8.07495 111.245 7.96191 112.735 7.96191C114.215 7.96191 115.447 8.07773 116.43 8.30935C117.413 8.54096 118.18 8.94225 118.731 9.5132C119.283 10.0842 119.573 10.8652 119.602 11.8564H115.178C115.148 11.642 115.063 11.4383 114.931 11.2639C114.799 11.0896 114.625 10.9501 114.423 10.8581Z" fill="white"/>
<path fill-rule="evenodd" clip-rule="evenodd" d="M15.5505 23.6942C15.0799 23.7529 14.6001 23.7832 14.1131 23.7832C13.6224 23.7832 13.1392 23.7525 12.6652 23.6929C12.4408 24.9274 11.7915 25.8407 10.8672 26.1512C10.0977 26.411 9.36198 26.1773 9.28127 26.1517L9.27962 26.1512C7.54683 25.5709 7.054 23.0733 6.92614 21.243C6.02253 20.5063 5.24026 19.6333 4.61271 18.6566C4.56333 18.864 4.52445 19.0531 4.48888 19.2261C4.34259 19.9375 4.25232 20.3765 3.71853 20.7008C2.92241 21.1848 1.91967 20.942 1.86665 20.9284C0.840512 20.6644 0.390604 19.7852 0.279101 19.563C-0.812533 17.4223 1.63429 14.8059 1.86665 14.5624C2.22201 14.1918 2.58888 13.8886 2.94343 13.6376C2.92629 13.3911 2.91758 13.1423 2.91758 12.8916C2.91758 6.87633 7.92997 2 14.1131 2C20.2962 2 25.3086 6.87633 25.3086 12.8916C25.3086 13.1468 25.2995 13.4 25.2818 13.6509C25.6298 13.8992 25.9893 14.1983 26.338 14.5624C26.5812 14.8059 29.0288 17.4223 27.9357 19.563C27.8249 19.7837 27.375 20.6629 26.3489 20.9284C26.2959 20.942 25.2931 21.1848 24.497 20.7008C23.9661 20.3772 23.8759 19.9393 23.7298 19.2305C23.6945 19.0591 23.6559 18.8718 23.607 18.6665C22.9779 19.6434 22.1939 20.5162 21.2885 21.2524C21.1599 23.0818 20.6658 25.5719 18.9359 26.1512L18.9343 26.1517C18.8535 26.1773 18.1179 26.411 17.3484 26.1512C16.4244 25.8408 15.7752 24.928 15.5505 23.6942Z" fill="#1B242A"/>
<path d="M14.1133 18.6185C18.2314 18.6185 21.5699 16.0543 21.5699 12.8913C21.5699 9.72823 18.2314 7.16406 14.1133 7.16406C9.99507 7.16406 6.65662 9.72823 6.65662 12.8913C6.65662 16.0543 9.99507 18.6185 14.1133 18.6185Z" fill="white"/>
<path d="M10.9187 14.343C11.8097 14.343 12.532 13.4029 12.532 12.2433C12.532 11.0836 11.8097 10.1436 10.9187 10.1436C10.0277 10.1436 9.30542 11.0836 9.30542 12.2433C9.30542 13.4029 10.0277 14.343 10.9187 14.343Z" fill="#1B242A"/>
<path d="M17.0348 14.343C17.9258 14.343 18.6481 13.4029 18.6481 12.2433C18.6481 11.0836 17.9258 10.1436 17.0348 10.1436C16.1438 10.1436 15.4215 11.0836 15.4215 12.2433C15.4215 13.4029 16.1438 14.343 17.0348 14.343Z" fill="#1B242A"/>
</svg>
